<?xml version="1.0"?>
<VTKFile type="UnstructuredGrid" version="0.1" byte_order="LittleEndian">
<UnstructuredGrid>
<Piece NumberOfPoints="23" NumberOfCells="68">
<Points>
<DataArray type="Float64" NumberOfComponents="3" format="ascii">
0.0 1.0 0.0 0.0 0.0 0.0 1.0 1.0 0.0 0.0 1.0 1.0 0.5 1.0 0.0 0.5 0.5 0.0 0.0 0.5 0.0 0.0 0.5 0.5 0.0 1.0 0.5 0.5 1.0 0.5 0.25 1.0 0.0 0.75 1.0 0.0 0.25 0.25 0.0 0.0 0.75 0.0 0.0 0.75 0.75 0.0 1.0 0.25 0.75 1.0 0.25 0.75 0.75 0.0 0.0 0.25 0.0 0.0 0.25 0.25 0.0 1.0 0.75 0.25 1.0 0.75 0.33333333333333337 0.6666666666666666 0.33333333333333337 
</DataArray>
</Points>
<Cells>
<DataArray type="Int32" Name="connectivity" format="ascii">
3 14 20 21 11 2 16 17 1 12 18 19 14 8 21 22 10 0 13 15 4 11 16 17 12 6 18 19 13 10 15 22 14 8 20 21 16 4 17 22 12 6 19 22 9 8 15 22 8 7 15 22 10 9 15 22 7 13 15 22 8 9 21 22 4 9 10 22 5 4 10 22 5 10 13 22 7 6 13 22 6 5 13 22 9 4 16 22 6 7 19 22 7 8 14 22 4 5 17 22 5 6 12 22 21 3 20 14 3 21 14 20 3 17 16 2 2 11 17 2 16 11 19 1 18 12 1 19 12 18 1 22 14 21 15 13 0 0 10 15 0 13 10 11 4 17 11 16 4 19 18 6 6 18 12 21 20 8 8 20 14 22 16 17 22 12 19 8 15 9 7 15 8 9 15 10 13 15 7 22 21 9 9 21 8 9 10 4 4 10 5 10 13 5 6 13 7 5 13 6 22 9 16 4 16 9 22 19 7 7 19 6 22 7 14 8 14 7 22 17 5 5 17 4 22 5 12 6 12 5 
</DataArray>
<DataArray type="Int32" Name="offsets" format="ascii">
4 8 12 16 20 24 28 32 36 40 44 48 52 56 60 64 68 72 76 80 84 88 92 96 100 104 107 110 113 116 119 122 125 128 131 134 137 140 143 146 149 152 155 158 161 164 167 170 173 176 179 182 185 188 191 194 197 200 203 206 209 212 215 218 221 224 227 230 
</DataArray>
<DataArray type="UInt8" Name="types" format="ascii">
10 10 10 10 10 10 10 10 10 10 10 10 10 10 10 10 10 10 10 10 10 10 10 10 10 10 5 5 5 5 5 5 5 5 5 5 5 5 5 5 5 5 5 5 5 5 5 5 5 5 5 5 5 5 5 5 5 5 5 5 5 5 5 5 5 5 5 5 
</DataArray>
</Cells>
<PointData Scalars="TheScalars">
<DataArray type="Int32" Name="marker" NumberOfComponents="1" format="ascii">
0 0 0 0 1 1 1 1 1 1 1 1 1 1 1 1 1 1 1 1 1 1 0 
</DataArray>
</PointData>
<CellData Scalars="TheScalars">
<DataArray type="Int32" Name="marker" NumberOfComponents="1" format="ascii">
1 1 1 1 1 1 1 1 1 1 1 1 1 1 1 1 1 1 1 1 1 1 1 1 1 1 0 0 0 0 0 0 0 0 0 0 0 0 0 0 0 0 0 0 0 0 0 0 0 0 0 0 0 0 0 0 0 0 0 0 0 0 0 0 0 0 0 0 
</DataArray>
</CellData>
</Piece>
</UnstructuredGrid>
</VTKFile>
