<?xml version="1.0" encoding="UTF-8"?><svg id="a" xmlns="http://www.w3.org/2000/svg" viewBox="0 0 562 238"><g id="b"><rect id="c" x="1" y="1" width="560" height="237" style="fill:#4d4d4d;"/><g id="d" style="opacity:.2;"><path id="e" d="M19.23,8.74v16.67l17.93-6.74V2l-17.93,6.74Z" style="fill:none; stroke:#fff; stroke-miterlimit:10; stroke-width:1.5px;"/><path id="f" d="M19.23,8.74v16.67L1,18.67V2l18.23,6.74Z" style="fill:none; stroke:#fff; stroke-miterlimit:10; stroke-width:1.5px;"/><path id="g" d="M90.94,8.74v16.67l-17.93-6.74V2l17.93,6.74Z" style="fill:none; stroke:#fff; stroke-miterlimit:10; stroke-width:1.5px;"/><path id="h" d="M127.4,8.74v16.67l17.92-6.74V2s-17.92,6.74-17.92,6.74Z" style="fill:none; stroke:#fff; stroke-miterlimit:10; stroke-width:1.5px;"/><path id="i" d="M19.23,25.54v16.69L1,35.48v-16.67s18.23,6.73,18.23,6.73Z" style="fill:none; stroke:#fff; stroke-miterlimit:10; stroke-width:1.5px;"/><path id="j" d="M19.23,58.73v17.11l17.93-6.92v-17.1l-17.93,6.9h0Z" style="fill:none; stroke:#fff; stroke-miterlimit:10; stroke-width:1.5px;"/><path id="k" d="M55.39,25.54v16.69l17.62-6.74v-16.67l-17.62,6.73h0Z" style="fill:none; stroke:#fff; stroke-miterlimit:10; stroke-width:1.5px;"/><path id="l" d="M90.94,42.28v16.46l-17.93-6.64v-16.47l17.93,6.66h0Z" style="fill:none; stroke:#fff; stroke-miterlimit:10; stroke-width:1.5px;"/><path id="m" d="M90.94,96.04v16.46l-17.93-6.64v-16.47l17.93,6.66h0Z" style="fill:none; stroke:#fff; stroke-miterlimit:10; stroke-width:1.5px;"/><path id="n" d="M55.39,25.64v16.89l-18.23-6.82v-16.9l18.23,6.83Z" style="fill:none; stroke:#fff; stroke-miterlimit:10; stroke-width:1.5px;"/><path id="o" d="M55.39,42.37v16.67l-18.23-6.73v-16.69l18.23,6.74h0Z" style="fill:none; stroke:#fff; stroke-miterlimit:10; stroke-width:1.5px;"/><path id="p" d="M127.4,42.28v16.46l17.92-6.64v-16.47l-17.92,6.66h0Z" style="fill:none; stroke:#fff; stroke-miterlimit:10; stroke-width:1.5px;"/><path id="q" d="M163.25,25.54v16.69l-17.93-6.74v-16.67l17.93,6.73h0Z" style="fill:none; stroke:#fff; stroke-miterlimit:10; stroke-width:1.5px;"/><path id="r" d="M127.4,75.47v16.89l17.92-6.82v-16.9s-17.92,6.83-17.92,6.83Z" style="fill:none; stroke:#fff; stroke-miterlimit:10; stroke-width:1.5px;"/><path id="s" d="M163.25,42.22v17.11l-17.93-6.92v-16.95l17.93,6.75h0Z" style="fill:none; stroke:#fff; stroke-miterlimit:10; stroke-width:1.5px;"/><path id="t" d="M90.93,58.73v17.11l17.93-6.92v-17.1l-17.93,6.9h0Z" style="fill:none; stroke:#fff; stroke-miterlimit:10; stroke-width:1.5px;"/><path id="u" d="M199.41,25.54v16.69l-18.23-6.74v-16.67l18.23,6.73h0Z" style="fill:none; stroke:#fff; stroke-miterlimit:10; stroke-width:1.5px;"/><path id="v" d="M127.4,25.54v16.69l-18.54-6.74v-16.67l18.54,6.73h0Z" style="fill:none; stroke:#fff; stroke-miterlimit:10; stroke-width:1.5px;"/><path id="w" d="M199.41,58.73v17.11l-18.23-6.92v-17.1l18.23,6.9h0Z" style="fill:none; stroke:#fff; stroke-miterlimit:10; stroke-width:1.5px;"/><path id="x" d="M163.25,8.66v16.46l17.92-6.64V2l-17.92,6.66Z" style="fill:none; stroke:#fff; stroke-miterlimit:10; stroke-width:1.5px;"/></g><g id="y" style="opacity:.2;"><path id="z" d="M235.75,8.74v16.67l17.93-6.74V2l-17.93,6.74Z" style="fill:none; stroke:#fff; stroke-miterlimit:10; stroke-width:1.5px;"/><path id="aa" d="M235.75,8.74v16.67l-18.23-6.74V2l18.23,6.74Z" style="fill:none; stroke:#fff; stroke-miterlimit:10; stroke-width:1.5px;"/><path id="ab" d="M307.45,8.74v16.67l-17.93-6.74V2l17.93,6.74Z" style="fill:none; stroke:#fff; stroke-miterlimit:10; stroke-width:1.5px;"/><path id="ac" d="M343.92,8.74v16.67l17.92-6.74V2l-17.92,6.74Z" style="fill:none; stroke:#fff; stroke-miterlimit:10; stroke-width:1.5px;"/><path id="ad" d="M199.59,42.28v16.46l17.93-6.64v-16.47l-17.93,6.66h0Z" style="fill:none; stroke:#fff; stroke-miterlimit:10; stroke-width:1.5px;"/><path id="ae" d="M235.75,25.54v16.69l-18.23-6.74v-16.67l18.23,6.73h0Z" style="fill:none; stroke:#fff; stroke-miterlimit:10; stroke-width:1.5px;"/><path id="af" d="M235.75,58.73v17.11l17.93-6.92v-17.1l-17.93,6.9h0Z" style="fill:none; stroke:#fff; stroke-miterlimit:10; stroke-width:1.5px;"/><path id="ag" d="M271.91,25.54v16.69l17.62-6.74v-16.67l-17.62,6.73h0Z" style="fill:none; stroke:#fff; stroke-miterlimit:10; stroke-width:1.5px;"/><path id="ah" d="M307.45,42.28v16.46l-17.93-6.64v-16.47l17.93,6.66h0Z" style="fill:none; stroke:#fff; stroke-miterlimit:10; stroke-width:1.5px;"/><path id="ai" d="M307.45,76.84v16.46l-17.93-6.64v-16.47l17.93,6.66h0Z" style="fill:none; stroke:#fff; stroke-miterlimit:10; stroke-width:1.5px;"/><path id="aj" d="M271.91,25.64v16.89l-18.23-6.82v-16.9l18.23,6.83Z" style="fill:none; stroke:#fff; stroke-miterlimit:10; stroke-width:1.5px;"/><path id="ak" d="M271.91,42.37v16.67l-18.23-6.73v-16.69l18.23,6.74h0Z" style="fill:none; stroke:#fff; stroke-miterlimit:10; stroke-width:1.5px;"/><path id="al" d="M343.92,42.28v16.46l17.92-6.64v-16.47l-17.92,6.66h0Z" style="fill:none; stroke:#fff; stroke-miterlimit:10; stroke-width:1.5px;"/><path id="am" d="M379.77,25.54v16.69l-17.93-6.74v-16.67l17.93,6.73h0Z" style="fill:none; stroke:#fff; stroke-miterlimit:10; stroke-width:1.5px;"/><path id="an" d="M343.92,75.47v16.89l17.92-6.82v-16.9l-17.92,6.83Z" style="fill:none; stroke:#fff; stroke-miterlimit:10; stroke-width:1.5px;"/><path id="ao" d="M379.77,42.22v17.11l-17.93-6.92v-16.95l17.93,6.75h0Z" style="fill:none; stroke:#fff; stroke-miterlimit:10; stroke-width:1.5px;"/><path id="ap" d="M307.45,58.73v17.11l17.93-6.92v-17.1l-17.93,6.9h0Z" style="fill:none; stroke:#fff; stroke-miterlimit:10; stroke-width:1.5px;"/><path id="aq" d="M415.92,25.54v16.69l-18.23-6.74v-16.67l18.23,6.73h0Z" style="fill:none; stroke:#fff; stroke-miterlimit:10; stroke-width:1.5px;"/><path id="ar" d="M379.77,58.75v17.1l17.93-6.9v-17.11l-17.93,6.92h0Z" style="fill:none; stroke:#fff; stroke-miterlimit:10; stroke-width:1.5px;"/><path id="as" d="M379.77,98.38v17.1l17.92-6.9v-17.11l-17.92,6.92h0Z" style="fill:none; stroke:#fff; stroke-miterlimit:10; stroke-width:1.5px;"/><path id="at" d="M343.92,25.54v16.69l-18.54-6.74v-16.67l18.54,6.73h0Z" style="fill:none; stroke:#fff; stroke-miterlimit:10; stroke-width:1.5px;"/><path id="au" d="M415.92,58.73v17.11l-18.23-6.92v-17.1l18.23,6.9h0Z" style="fill:none; stroke:#fff; stroke-miterlimit:10; stroke-width:1.5px;"/><path id="av" d="M455.53,113.52v17.11l-18.23-6.92v-17.1l18.23,6.9h0Z" style="fill:none; stroke:#fff; stroke-miterlimit:10; stroke-width:1.5px;"/><path id="aw" d="M379.77,8.66v16.46l17.93-6.64V2l-17.93,6.66Z" style="fill:none; stroke:#fff; stroke-miterlimit:10; stroke-width:1.5px;"/></g><g id="ax" style="opacity:.5;"><g id="ay" style="opacity:.2;"><path id="az" d="M452.92,8.74v16.67l-18.23-6.74V2l18.23,6.74Z" style="fill:none; stroke:#fff; stroke-miterlimit:10; stroke-width:1.5px;"/><path id="ba" d="M416.76,42.28v16.46l17.92-6.64v-16.47l-17.92,6.66h0Z" style="fill:none; stroke:#fff; stroke-miterlimit:10; stroke-width:1.5px;"/><path id="bb" d="M416.76,75.23v16.46l17.92-6.64v-16.47l-17.92,6.66h0Z" style="fill:none; stroke:#fff; stroke-miterlimit:10; stroke-width:1.5px;"/><path id="bc" d="M452.92,25.54v16.69l-18.23-6.74v-16.67l18.23,6.73h0Z" style="fill:none; stroke:#fff; stroke-miterlimit:10; stroke-width:1.5px;"/></g></g><g id="bd" style="opacity:.2;"><path id="be" d="M452.83,8.74v16.67l17.92-6.74V2l-17.92,6.74Z" style="fill:none; stroke:#fff; stroke-miterlimit:10; stroke-width:1.5px;"/><path id="bf" d="M452.83,8.74v16.67l-18.23-6.74V2l18.23,6.74Z" style="fill:none; stroke:#fff; stroke-miterlimit:10; stroke-width:1.5px;"/><path id="bg" d="M524.53,8.74v16.67l-17.92-6.74V2l17.92,6.74Z" style="fill:none; stroke:#fff; stroke-miterlimit:10; stroke-width:1.5px;"/><path id="bh" d="M452.83,25.54v16.69l-18.23-6.74v-16.67l18.23,6.73h0Z" style="fill:none; stroke:#fff; stroke-miterlimit:10; stroke-width:1.5px;"/><path id="bi" d="M452.83,58.73v17.11l17.92-6.92v-17.1l-17.92,6.9h0Z" style="fill:none; stroke:#fff; stroke-miterlimit:10; stroke-width:1.5px;"/><path id="bj" d="M488.99,25.54v16.69l17.62-6.74v-16.67l-17.62,6.73h0Z" style="fill:none; stroke:#fff; stroke-miterlimit:10; stroke-width:1.5px;"/><path id="bk" d="M524.53,42.28v16.46l-17.92-6.64v-16.47l17.92,6.66h0Z" style="fill:none; stroke:#fff; stroke-miterlimit:10; stroke-width:1.5px;"/><path id="bl" d="M524.53,96.04v16.46l-17.92-6.64v-16.47l17.92,6.66h0Z" style="fill:none; stroke:#fff; stroke-miterlimit:10; stroke-width:1.5px;"/><path id="bm" d="M488.99,25.64v16.89l-18.23-6.82v-16.9l18.23,6.83Z" style="fill:none; stroke:#fff; stroke-miterlimit:10; stroke-width:1.5px;"/><path id="bn" d="M488.99,42.37v16.67l-18.23-6.73v-16.69l18.23,6.74h0Z" style="fill:none; stroke:#fff; stroke-miterlimit:10; stroke-width:1.5px;"/><path id="bo" d="M524.53,58.73v17.11l17.93-6.92v-17.1l-17.93,6.9h0Z" style="fill:none; stroke:#fff; stroke-miterlimit:10; stroke-width:1.5px;"/><path id="bp" d="M561,25.54v16.69l-18.54-6.74v-16.67l18.54,6.73h0Z" style="fill:none; stroke:#fff; stroke-miterlimit:10; stroke-width:1.5px;"/><path id="bq" d="M561,77.51v16.69l-18.54-6.74v-16.67l18.54,6.73h0Z" style="fill:none; stroke:#fff; stroke-miterlimit:10; stroke-width:1.5px;"/></g></g><g id="br"><g id="bs"><path d="M201.94,131.93c-5.97-.02-11.56-2.35-15.77-6.57-.89-.9-.89-2.35,0-3.24.9-.89,2.35-.89,3.24,0,3.34,3.35,7.79,5.21,12.52,5.22,9.92-.02,17.98-8.12,17.96-18.06,0-4.75-1.86-9.23-5.2-12.62-.89-.9-.88-2.35.02-3.24.9-.89,2.35-.88,3.24.02,4.19,4.24,6.51,9.86,6.52,15.83.03,12.46-10.08,22.63-22.54,22.66h0Z" style="fill:none; stroke:#292826; stroke-miterlimit:10; stroke-width:1.8px;"/><path d="M210.83,78.18c5.97.02,11.56,2.35,15.77,6.57.89.9.89,2.35,0,3.24-.9.89-2.35.89-3.24,0-3.34-3.35-7.79-5.21-12.52-5.22-9.92.02-17.98,8.12-17.96,18.06,0,4.75,1.86,9.23,5.2,12.62.89.9.88,2.35-.02,3.24-.9.89-2.35.88-3.24-.02-4.19-4.24-6.51-9.86-6.52-15.83-.03-12.46,10.08-22.63,22.54-22.66h0Z" style="fill:none; stroke:#292826; stroke-miterlimit:10; stroke-width:1.8px;"/></g></g><path d="M234.17,99.14c.81-4.62,5.17-8.56,10.76-8.56,2.18,0,3.7.69,4.95,1.75.66.55.57,1.3-.17,1.99l-1.14,1.09c-.71.69-1.33.64-2.01.12-.73-.52-1.61-.69-2.39-.69-2.58,0-4.6,1.9-5.02,4.29-.43,2.39.92,4.29,3.51,4.29.78,0,1.68-.17,2.63-.69.88-.52,1.49-.57,1.97.12l.76,1.09c.5.71.38,1.4-.4,1.92-1.68,1.11-3.48,1.83-5.71,1.83-5.59,0-8.53-3.93-7.73-8.56h0Z" style="stroke:#1a1a1a; stroke-width:1.19px;"/><path d="M251.23,102.27l1.02-5.88c.17-.92.76-1.42,1.68-1.42h2.04c.92,0,1.33.5,1.16,1.42l-.95,5.4c-.17.97-.14,2.11,1.11,2.11s1.64-1.14,1.8-2.11l.95-5.4c.17-.92.76-1.42,1.68-1.42h2.04c.92,0,1.33.5,1.16,1.42l-1.68,9.62c-.17.92-.76,1.42-1.68,1.42h-2.04c-.92,0-1.33-.5-1.16-1.42l.02-.12c-.9,1.11-2.11,1.8-3.79,1.8-3.86,0-3.72-3.39-3.37-5.43h0Z" style="stroke:#1a1a1a; stroke-width:1.19px;"/><path d="M278.83,95.7l-.47,2.61c-.12.76-.62,1.09-1.21,1.04-.19-.02-.36-.02-.52-.02-1.99,0-2.73,1.37-2.94,2.68l-.71,4.01c-.17.92-.76,1.42-1.68,1.42h-2.04c-.92,0-1.33-.5-1.16-1.42l1.68-9.62c.17-.92.76-1.42,1.68-1.42h1.85c.92,0,1.33.5,1.16,1.42l-.21,1.21c.85-2.54,2.99-2.89,3.65-2.89h.28c.66,0,.71.55.64,1h0Z" style="stroke:#1a1a1a; stroke-width:1.19px;"/><path d="M282.95,106.37l-2.65-9.74c-.28-.97.28-1.66,1.35-1.66h2.25c.83,0,1.3.36,1.42,1.16l1,6.04,3.18-6.04c.4-.78,1-1.16,1.83-1.16h2.28c1.07,0,1.42.69.81,1.66l-6.09,9.74c-.45.73-1.04,1.07-1.85,1.07h-2.04c-.81,0-1.26-.33-1.47-1.07Z" style="stroke:#1a1a1a; stroke-width:1.19px;"/><path d="M294.8,101.25c.62-3.41,3.63-6.54,8.13-6.54,3.93,0,6.45,2.37,5.76,6.35-.14.78-.81,1.11-1.68,1.11h-7.82c-.12.69.78,1.87,2.89,1.87.57,0,1.35-.09,2.28-.5.88-.38,1.52-.33,1.9.38l.31.5c.4.71.24,1.49-.64,2.01-1.56.9-3.32,1.26-4.93,1.26-4.6,0-6.8-2.87-6.19-6.45h0ZM304.47,99.92c.14-1.21-.9-1.8-2.11-1.8s-2.49.59-2.77,1.8h4.88Z" style="stroke:#1a1a1a; stroke-width:1.19px;"/><path d="M311.44,103.12l.83-4.62h-1c-.45,0-.66-.26-.59-.71l.38-2.11c.07-.45.38-.71.83-.71h1.52l.78-2.2c.21-.57.64-.85,1.21-.85h1.85c.62,0,.88.33.78.95l-.38,2.11h2.25c.45,0,.66.26.59.71l-.38,2.11c-.07.45-.38.71-.83.71h-2.25l-.83,4.67c-.09.55.12.76.45.76.5,0,.76-.5.83-.95.02-.12.02-.17.05-.38.05-.5.26-.76.73-.76h1.75c.38,0,.66.14.71.52.07.31.05.64.02.97-.62,3.48-3.25,4.36-5.38,4.36s-4.57-.92-3.93-4.57Z" style="stroke:#1a1a1a; stroke-width:1.19px;"/><path d="M323.48,103.12l.83-4.62h-1c-.45,0-.66-.26-.59-.71l.38-2.11c.07-.45.38-.71.83-.71h1.52l.78-2.2c.21-.57.64-.85,1.21-.85h1.85c.62,0,.88.33.78.95l-.38,2.11h2.25c.45,0,.66.26.59.71l-.38,2.11c-.07.45-.38.71-.83.71h-2.25l-.83,4.67c-.09.55.12.76.45.76.5,0,.76-.5.83-.95.02-.12.02-.17.05-.38.05-.5.26-.76.73-.76h1.75c.38,0,.66.14.71.52.07.31.05.64.02.97-.62,3.48-3.25,4.36-5.38,4.36s-4.57-.92-3.93-4.57Z" style="stroke:#1a1a1a; stroke-width:1.19px;"/><path d="M334.57,101.2c.66-3.77,3.67-6.49,6.99-6.49,1.61,0,2.77.69,3.22,1.83l.02-.14c.17-.92.76-1.42,1.68-1.42h2.04c.92,0,1.33.5,1.16,1.42l-1.68,9.62c-.17.92-.76,1.42-1.68,1.42h-2.04c-.92,0-1.33-.5-1.16-1.42l.02-.12c-.88,1.11-2.28,1.8-3.89,1.8-3.32,0-5.36-2.73-4.69-6.49h0ZM344.05,101.2c.26-1.56-.4-2.77-1.83-2.77s-2.51,1.21-2.77,2.77c-.28,1.56.38,2.77,1.8,2.77s2.51-1.21,2.8-2.77h0Z" style="stroke:#1a1a1a; stroke-width:1.19px;"/><path d="M234.06,128.14c-.19-.9.4-1.52,1.33-1.73l1.42-.31c.85-.19,1.21.17,1.59.92.36.73,1.11,1.11,2.25,1.11s1.99-.38,2.13-1.19c.07-.4-.05-.92-1.16-1.3l-1.75-.71c-.76-.26-4.6-1.33-4.01-4.86.55-3.2,3.63-5.26,7.25-5.26,2.56,0,4.17,1.02,4.91,2.92.36.85-.19,1.56-1.16,1.83l-1.33.36c-.85.24-1.26-.09-1.73-.76-.24-.33-.64-.55-1.28-.55-.81,0-1.61.33-1.73,1.04-.09.47.17.9,1.11,1.26l1.75.64c3.46,1.28,4.34,2.89,4.01,5.24-.64,3.53-4.1,5.14-7.7,5.14-3.27,0-5.4-1.35-5.9-3.79h0Z" style="stroke:#1a1a1a; stroke-width:1.19px;"/><path d="M249.54,130.25l2.51-14.29c.17-.92.76-1.42,1.68-1.42h2.04c.92,0,1.33.5,1.16,1.42l-2.51,14.29c-.17.92-.76,1.42-1.68,1.42h-2.04c-.92,0-1.33-.5-1.16-1.42Z" style="stroke:#1a1a1a; stroke-width:1.19px;"/><path d="M257.45,130.25l1.68-9.62c.17-.92.76-1.42,1.68-1.42h2.04c.92,0,1.33.5,1.16,1.42l-1.68,9.62c-.17.92-.76,1.42-1.68,1.42h-2.04c-.92,0-1.33-.5-1.16-1.42ZM259.63,116.26c.21-1.23,1.26-2.18,3.1-2.18s2.56.95,2.35,2.18-1.35,2.18-3.1,2.18-2.56-.95-2.35-2.18Z" style="stroke:#1a1a1a; stroke-width:1.19px;"/><path d="M265.55,125.44c.62-3.6,4.2-6.49,8.46-6.49,1.4,0,2.84.33,3.96,1.07.69.5.59,1.26-.14,1.99l-.71.71c-.66.69-1.26.69-2.01.31-.55-.24-1.04-.31-1.42-.31-1.61,0-2.99,1.14-3.25,2.73-.28,1.59.66,2.73,2.28,2.73.38,0,.92-.07,1.54-.31.88-.38,1.52-.4,1.94.28l.45.73c.45.71.28,1.52-.64,1.99-1.35.73-2.92,1.07-4.29,1.07-4.27,0-6.8-2.89-6.16-6.49Z" style="stroke:#1a1a1a; stroke-width:1.19px;"/><path d="M279.3,125.48c.62-3.41,3.63-6.54,8.13-6.54,3.93,0,6.45,2.37,5.76,6.35-.14.78-.81,1.11-1.68,1.11h-7.82c-.12.69.78,1.87,2.89,1.87.57,0,1.35-.09,2.28-.5.88-.38,1.52-.33,1.9.38l.31.5c.4.71.24,1.49-.64,2.01-1.56.9-3.32,1.26-4.93,1.26-4.6,0-6.8-2.87-6.19-6.45ZM288.97,124.16c.14-1.21-.9-1.8-2.11-1.8s-2.49.59-2.77,1.8h4.88Z" style="stroke:#1a1a1a; stroke-width:1.19px;"/><path d="M305.37,119.94l-.47,2.61c-.12.76-.62,1.09-1.21,1.04-.19-.02-.36-.02-.52-.02-1.99,0-2.73,1.37-2.94,2.68l-.71,4.01c-.17.92-.76,1.42-1.68,1.42h-2.04c-.92,0-1.33-.5-1.16-1.42l1.68-9.62c.17-.92.76-1.42,1.68-1.42h1.85c.92,0,1.33.5,1.16,1.42l-.21,1.21c.85-2.54,2.99-2.89,3.65-2.89h.28c.66,0,.71.55.64,1Z" style="stroke:#1a1a1a; stroke-width:1.19px;"/></svg>