<?xml version="1.0" encoding="UTF-8"?><svg id="a" xmlns="http://www.w3.org/2000/svg" viewBox="0 0 64 64"><rect width="64" height="64" rx="14" ry="14" style="fill:#e9e9e9;"/><g id="b"><path d="M27.63,57.53c-5.86-.02-11.35-2.31-15.49-6.45-.88-.88-.87-2.31,0-3.19.88-.88,2.31-.87,3.19,0,3.28,3.29,7.65,5.11,12.3,5.13,9.74-.02,17.66-7.98,17.63-17.74-.01-4.67-1.82-9.07-5.11-12.39-.87-.88-.87-2.31.02-3.19.88-.87,2.31-.87,3.19.02,4.12,4.17,6.39,9.69,6.41,15.55.03,12.24-9.9,22.22-22.14,22.25h0Z" style="fill:none; stroke:#292826; stroke-miterlimit:10; stroke-width:1.8px;"/><path d="M36.37,4.73c5.86.02,11.35,2.31,15.49,6.45.88.88.87,2.31,0,3.19-.88.88-2.31.87-3.19,0-3.28-3.29-7.65-5.11-12.3-5.13-9.74.02-17.66,7.98-17.63,17.74.01,4.67,1.82,9.07,5.11,12.39.87.88.87,2.31-.02,3.19-.88.87-2.31.87-3.19-.02-4.12-4.17-6.39-9.69-6.41-15.55-.03-12.24,9.9-22.22,22.14-22.25h0Z" style="fill:none; stroke:#292826; stroke-miterlimit:10; stroke-width:1.8px;"/></g></svg>